<?xml version="1.0" encoding="UTF-8" standalone="no"?>
<!-- Created with Inkscape (http://www.inkscape.org/) -->

<svg
   xmlns:dc="http://purl.org/dc/elements/1.1/"
   xmlns:cc="http://creativecommons.org/ns#"
   xmlns:rdf="http://www.w3.org/1999/02/22-rdf-syntax-ns#"
   xmlns:svg="http://www.w3.org/2000/svg"
   xmlns="http://www.w3.org/2000/svg"
   xmlns:sodipodi="http://sodipodi.sourceforge.net/DTD/sodipodi-0.dtd"
   xmlns:inkscape="http://www.inkscape.org/namespaces/inkscape"
   width="900"
   height="900"
   id="svg3022"
   version="1.1"
   inkscape:version="0.48.3.1 r9886"
   sodipodi:docname="New document 3">
  <defs
     id="defs3024" />
  <sodipodi:namedview
     id="base"
     pagecolor="#ffffff"
     bordercolor="#666666"
     borderopacity="1.0"
     inkscape:pageopacity="0.0"
     inkscape:pageshadow="2"
     inkscape:zoom="0.49497475"
     inkscape:cx="460.08792"
     inkscape:cy="606.41459"
     inkscape:document-units="px"
     inkscape:current-layer="layer1"
     showgrid="false"
     fit-margin-top="0"
     fit-margin-left="0"
     fit-margin-right="0"
     fit-margin-bottom="0"
     inkscape:window-width="1366"
     inkscape:window-height="745"
     inkscape:window-x="-8"
     inkscape:window-y="-8"
     inkscape:window-maximized="1" />
  <metadata
     id="metadata3027">
    <rdf:RDF>
      <cc:Work
         rdf:about="">
        <dc:format>image/svg+xml</dc:format>
        <dc:type
           rdf:resource="http://purl.org/dc/dcmitype/StillImage" />
        <dc:title></dc:title>
      </cc:Work>
    </rdf:RDF>
  </metadata>
  <g
     inkscape:label="Layer 1"
     inkscape:groupmode="layer"
     id="layer1"
     transform="translate(-172.85715,-299.50504)">
    <path
       style="fill:#448abf"
       d="m 377.35712,1034.4088 c -8.9202,-1.9228 -19.6338,-7.4179 -25.24213,-12.947 -6.07782,-5.992 -10.07939,-13.1032 -12.94614,-23.00678 l -2.31173,-7.98616 0,-239.5 c 0,-223.99717 0.11225,-239.93649 1.73406,-246.2433 4.23997,-16.4882 13.49255,-28.59781 26.77899,-35.04786 14.77586,-7.17311 -3.06864,-6.70884 257.85682,-6.70884 259.88328,0 243.76629,-0.40371 257.70569,6.45526 13.2562,6.52274 22.1896,18.59959 26.1055,35.29116 1.73199,7.3826 1.81899,19.18885 1.81899,246.75358 0,223.60488 -0.1118,239.4348 -1.7356,245.75002 -5.2015,20.22912 -18.42259,33.02712 -38.51869,37.28572 -9.9942,2.1179 -481.40223,2.0259 -491.24575,-0.096 z m 278.80362,-68.93766 c 29.6828,-4.22956 61.0558,-15.5605 85.39814,-30.84309 56.1053,-35.22398 92.2241,-90.67457 102.36869,-157.15919 2.0375,-13.35268 2.3325,-42.81965 0.5657,-56.5 -8.54949,-66.19899 -43.10969,-121.94278 -98.31249,-158.57327 -26.11244,-17.32717 -56.74894,-28.86075 -90.32364,-34.0037 -13.3682,-2.04774 -45.0779,-2.34723 -57.50002,-0.54308 -51.68664,7.50682 -94.09789,28.272 -128.97297,63.14708 -80.14348,80.14347 -86.59205,207.89197 -14.9216,295.60199 37.11476,45.42091 92.07915,74.68157 150.89457,80.32973 12.13008,1.16488 37.51432,0.43714 50.80363,-1.45647 z m -43.80362,-49.1647 c -54.40781,-5.32183 -98.4412,-31.17803 -128.1181,-75.23035 -37.79888,-56.10855 -38.26212,-130.21761 -1.16645,-186.60723 17.08173,-25.96617 40.55586,-46.72218 67.78455,-59.93563 76.83921,-37.28829 167.75392,-12.71812 215.57206,58.25946 23.9833,35.59903 33.0535,77.34054 26.3309,121.17617 -9.4001,61.29467 -54.0591,114.17138 -113.14734,133.96775 -20.8378,6.98133 -47.51269,10.30096 -67.25562,8.36983 z m 32.22522,-35.58433 0.2748,-16.24674 5.8504,-0.72983 c 9.3516,-1.16662 24.7079,-6.95031 34.1825,-12.87432 12.2137,-7.63661 24.6503,-20.7784 30.23761,-31.95237 5.4905,-10.98007 7.2328,-18.20354 7.2147,-29.91009 -0.029,-18.55374 -5.21461,-31.254 -17.544,-42.9657 -11.482,-10.9068 -28.939,-18.23748 -50.9412,-21.3916 l -9,-1.29019 -0.2677,-24.80906 -0.2677,-24.80906 2.7677,0.67153 c 5.2059,1.26311 11.1786,4.68871 14.2256,8.15903 3.803,4.33134 7.66139,11.8489 8.5715,16.70038 l 0.6932,3.69477 23.9606,0 23.9607,0 -0.6511,-5.75 c -3.0119,-26.5974 -18.2483,-48.03784 -42.9928,-60.4989 -6.0595,-3.0515 -19.2629,-7.25213 -25.7255,-8.18453 l -4.7255,-0.68177 -0.2745,-16.1924 -0.2745,-16.1924 -22.25002,-0.26913 -22.25,-0.26913 0,16.318 0,16.318 -9.78992,2.20782 c -12.43264,2.8038 -29.14148,10.90818 -38.50657,18.67705 -16.01296,13.28365 -24.02337,30.12829 -24.02337,50.51739 0,34.22108 21.92457,55.3057 66.56985,64.01952 l 5.75,1.12228 0,26.4291 c 0,21.53097 -0.25039,26.4291 -1.35105,26.4291 -2.41059,0 -11.05488,-5.06829 -14.77843,-8.66485 -4.34703,-4.19877 -8.29665,-11.93725 -10.62659,-20.82067 l -1.70862,-6.51448 -23.76765,0 -23.76765,0 0,2.93462 c 0,9.90106 6.20004,28.05151 13.29439,38.91897 12.31736,18.8683 35.33638,34.94089 57.45561,40.11728 l 5.25,1.22861 0,16.40026 0,16.40026 22.47523,0 22.47519,0 0.2748,-16.24675 z m 0.7748,-85.89214 0,-23.13889 5.8634,0.53168 c 25.0091,2.26774 33.6091,26.25062 13.9393,38.87267 -4.0647,2.60833 -15.8739,6.87343 -19.0311,6.87343 -0.4244,0 -0.7716,-10.4125 -0.7716,-23.13889 z m -56.50002,-81.06766 c -7.39814,-2.58604 -13.42391,-10.22021 -13.47803,-17.07557 -0.0709,-8.98452 8.74663,-18.36756 20.22803,-21.5253 l 3.75,-1.03137 0,20.4194 0,20.41939 -3.75,-0.079 c -2.0625,-0.0434 -5.1,-0.55084 -6.75,-1.1276 z"
       id="path3041"
       inkscape:connector-curvature="0" />
  </g>
</svg>
